<?xml version="1.0" encoding="utf-8"?>
<!-- Generator: Adobe Illustrator 15.1.0, SVG Export Plug-In . SVG Version: 6.00 Build 0)  -->
<!DOCTYPE svg PUBLIC "-//W3C//DTD SVG 1.1//EN" "http://www.w3.org/Graphics/SVG/1.1/DTD/svg11.dtd">
<svg version="1.1" id="レイヤー_1" xmlns="http://www.w3.org/2000/svg" xmlns:xlink="http://www.w3.org/1999/xlink" x="0px"
	 y="0px" width="321px" height="71px" viewBox="0 0 321 71" enable-background="new 0 0 321 71" xml:space="preserve">
<g>
	<g>
		<g>
			<g>
				<rect x="2.653" y="0.965" width="1.766" height="28.9"/>
			</g>
			<g>
				<rect x="17.194" y="0.965" width="1.766" height="28.9"/>
			</g>
			<g>
				<rect x="25.134" y="-7.166" transform="matrix(0.8079 0.5893 -0.5893 0.8079 25.6834 -8.5891)" width="1.765" height="84.534"/>
			</g>
			
				<rect x="101.524" y="25.224" transform="matrix(0.6984 0.7157 -0.7157 0.6984 59.7419 -89.5538)" width="69.205" height="1.766"/>
			<rect x="102.421" y="51.276" transform="matrix(0.6984 0.7158 -0.7158 0.6984 75.1984 -74.116)" width="46.22" height="1.763"/>
			<polygon points="66.487,8.848 71.744,1.477 70.306,0.453 52.45,25.49 53.887,26.516 65.228,10.613 98.952,10.613 55.446,68.709 
				56.859,69.767 102.478,8.848 			"/>
			<rect x="160.333" y="0.46" width="50.9" height="1.765"/>
			<polygon points="320.541,1.492 319.152,0.461 268.221,0.46 268.221,2.225 317.839,2.225 268.215,68.709 269.631,69.766 
				294.378,36.576 319.127,69.766 320.541,68.709 295.479,35.102 			"/>
			<g>
				<rect x="318.951" y="22.352" width="1.765" height="20.895"/>
			</g>
			<g>
				<rect x="308.286" y="22.352" width="1.769" height="20.895"/>
			</g>
			<polygon points="258.265,1.582 257.007,0.348 210.613,47.726 211.875,48.96 240.315,19.914 240.315,69.238 242.083,69.238 
				242.083,18.111 			"/>
		</g>
	</g>
	<polygon points="213.333,16.373 160.333,16.373 160.333,18.137 209.136,18.137 160.313,67.994 110.023,16.638 108.762,17.872 
		159.666,69.855 159.667,69.851 160.313,70.498 160.96,69.851 160.964,69.855 	"/>
</g>
</svg>
