<?xml version="1.0" encoding="utf-8"?>
<!-- Generator: Adobe Illustrator 15.1.0, SVG Export Plug-In . SVG Version: 6.00 Build 0)  -->
<!DOCTYPE svg PUBLIC "-//W3C//DTD SVG 1.1//EN" "http://www.w3.org/Graphics/SVG/1.1/DTD/svg11.dtd">
<svg version="1.1" id="レイヤー_1" xmlns="http://www.w3.org/2000/svg" xmlns:xlink="http://www.w3.org/1999/xlink" x="0px"
	 y="0px" width="168px" height="148px" viewBox="0 0 168 148" enable-background="new 0 0 168 148" xml:space="preserve">
<g>
	<g>
		<g>
			<polygon fill="#FFFFFF" points="86.027,28.908 86.027,1.51 57.302,28.908 			"/>
			<circle fill="#FFFFFF" cx="57.302" cy="38.327" r="1.26"/>
			<circle fill="#FFFFFF" cx="57.302" cy="86.359" r="1.26"/>
			<circle fill="#FFFFFF" cx="107.771" cy="38.327" r="1.26"/>
			<circle fill="#FFFFFF" cx="86.029" cy="28.908" r="1.26"/>
			<circle fill="#FFFFFF" cx="86.029" cy="1.51" r="1.26"/>
			<circle fill="#FFFFFF" cx="57.302" cy="28.908" r="1.26"/>
			<circle fill="#FFFFFF" cx="111.887" cy="90.914" r="1.26"/>
			<circle fill="#FFFFFF" cx="111.887" cy="42.882" r="1.26"/>
			<circle fill="#FFFFFF" cx="61.418" cy="90.914" r="1.26"/>
			<g>
				<polygon fill="#FFFFFF" points="57.302,49.337 57.302,86.541 73.775,70.83 73.775,49.337 				"/>
				<polygon fill="#FFFFFF" points="57.302,38.327 57.302,44.142 101.76,44.142 107.855,38.327 				"/>
				<polygon fill="#FFFFFF" points="78.97,65.876 96.313,49.337 78.97,49.337 				"/>
			</g>
			<path fill="#FFFFFF" d="M111.888,42.699L84.191,69.113h17.387v14.871h-0.036l6.929,6.93h3.417V42.699z M73.775,90.914V79.047
				L61.333,90.914H73.775z M79.132,83.984v6.93h21.763l-6.929-6.93H79.132z M96.223,74.469h-17.09v4.16h17.09V74.469z"/>
		</g>
		<g>
			<g>
				<rect x="1.995" y="111.045" fill="#FFFFFF" width="0.924" height="15.127"/>
			</g>
			<g>
				<rect x="9.606" y="111.045" fill="#FFFFFF" width="0.924" height="15.127"/>
			</g>
			<g>
				
					<rect x="13.761" y="106.791" transform="matrix(0.8075 0.5898 -0.5898 0.8075 78.7708 16.421)" fill="#FFFFFF" width="0.924" height="44.245"/>
			</g>
			
				<rect x="53.745" y="123.744" transform="matrix(0.6984 0.7157 -0.7157 0.6984 110.5694 -13.9669)" fill="#FFFFFF" width="36.223" height="0.924"/>
			
				<rect x="54.215" y="137.378" transform="matrix(0.6984 0.7157 -0.7157 0.6984 118.6578 -5.8844)" fill="#FFFFFF" width="24.191" height="0.924"/>
			<polygon fill="#FFFFFF" points="35.406,115.172 38.157,111.313 37.405,110.777 28.059,123.883 28.811,124.419 34.747,116.096 
				52.398,116.096 29.627,146.504 30.367,147.057 54.244,115.172 			"/>
			<rect x="84.526" y="110.781" fill="#FFFFFF" width="26.642" height="0.924"/>
			<polygon fill="#FFFFFF" points="168.381,111.321 167.654,110.781 140.996,110.781 140.996,111.705 166.967,111.705 
				140.992,146.504 141.734,147.057 154.688,129.686 167.641,147.057 168.381,146.504 155.264,128.912 			"/>
			<g>
				<rect x="167.549" y="122.24" fill="#FFFFFF" width="0.924" height="10.936"/>
			</g>
			<g>
				<rect x="161.967" y="122.24" fill="#FFFFFF" width="0.926" height="10.936"/>
			</g>
			<polygon fill="#FFFFFF" points="135.785,111.368 135.127,110.723 110.844,135.521 111.504,136.167 126.39,120.964 126.39,146.78 
				127.314,146.78 127.314,120.021 			"/>
		</g>
	</g>
	<polygon fill="#FFFFFF" points="112.267,119.109 84.526,119.109 84.526,120.033 110.07,120.033 84.516,146.13 58.193,119.248 
		57.533,119.895 84.177,147.104 84.178,147.102 84.516,147.439 84.854,147.102 84.856,147.104 	"/>
</g>
</svg>
